<svg xmlns="http://www.w3.org/2000/svg" viewBox="0 0 24 24" fill-rule="evenodd" stroke-linecap="round" stroke-linejoin="round" stroke-miterlimit="1.5" xmlns:v="https://vecta.io/nano"><style><![CDATA[.B{font-family:ArialMT, Arial, sans-serif}.C{fill:#01b5ff}]]></style><path d="M23.65 3.844A3.5 3.5 0 0 0 20.155.349H3.844A3.5 3.5 0 0 0 .349 3.844v16.311a3.5 3.5 0 0 0 3.495 3.495h16.311a3.5 3.5 0 0 0 3.495-3.495V3.844z" stroke="#00b5ff" stroke-width=".651"/><text x="3.047" y="13.79" font-size="15.317" transform="matrix(.979 0 0 .979 .017661 3.86701)" class="B C">Sv</text><text x="3.735" y="21.176" font-size="5" transform="matrix(.7811 0 0 .7811 .86365 5.93421)" class="B C">Elements</text><text x="3.735" y="21.176" font-size="5" transform="matrix(.7811 0 0 .7811 -1.50156 -11.5951)" class="B C">1<tspan x="6.145px 8.926px" y="21.176px 21.176px">19</tspan></text></svg>
